<?xml version="1.0" encoding="utf-8"?>
<!-- Generator: Adobe Illustrator 16.0.0, SVG Export Plug-In . SVG Version: 6.00 Build 0)  -->
<!DOCTYPE svg PUBLIC "-//W3C//DTD SVG 1.0//EN" "http://www.w3.org/TR/2001/REC-SVG-20010904/DTD/svg10.dtd">
<svg version="1.0" id="Layer_1" xmlns="http://www.w3.org/2000/svg" xmlns:xlink="http://www.w3.org/1999/xlink" x="0px" y="0px"
	 width="100px" height="100px" viewBox="0 0 100 100" enable-background="new 0 0 100 100" xml:space="preserve">
<polygon fill="#8BC34A" points="46.63,48.077 35.208,54.604 35.208,58.457 38.57,60.377 49.997,53.848 61.427,60.377 64.795,58.453 
	64.795,54.605 53.369,48.081 53.369,35.02 49.999,33.095 46.63,35.02 46.63,48.076 "/>
<path fill="#263238" d="M50,10L15,30v40l35,20l34.99-19.994L85,69.99V30L50,10z M50,17.699l24.891,14.22l-6.732,3.849L50,25.396
	L31.846,35.771l-6.739-3.852L50,17.699z M46.63,80.377L21.734,66.152V37.691l6.734,3.849v20.761L46.63,72.68V80.377z M35.208,58.457
	V41.546l14.791-8.451l14.796,8.451v16.907L50,66.904L35.208,58.457z M53.369,80.377V72.68l18.16-10.375V41.54l6.734-3.849v28.461
	h0.002L53.369,80.377z"/>
</svg>
