<svg version="1.1" id="Layer_1" xmlns="http://www.w3.org/2000/svg" x="0" y="0" viewBox="0 0 512 512" style="enable-background:new 0 0 512 512" xml:space="preserve"><style>.st2{fill:#4a555f}.st4{fill:#f58e6f}</style><path class="st2" d="M473.095-.877H38.906C17.453-.877 0 16.577 0 38.03v343.913c0 21.453 17.453 38.907 38.906 38.907h434.189c21.452 0 38.905-17.454 38.905-38.907V38.03c0-21.453-17.453-38.907-38.905-38.907zm31.674 382.82c0 17.466-14.209 31.675-31.674 31.675H38.906c-17.465 0-31.674-14.209-31.674-31.675V38.03c0-17.466 14.209-31.675 31.674-31.675h434.189c17.464 0 31.674 14.209 31.674 31.675v343.913z"/><path class="st2" d="M39.894 43.502v299.173H380.95l-24.882-24.566-18.91-38.22-14.826 9.904c-21.86 14.588-48.47 21.056-74.941 18.213-22.646-2.406-44.605-12.05-61.831-27.158-24.767-21.701-38.828-53.012-38.576-85.904.251-32.871 14.798-63.959 39.908-85.29 17.922-15.223 40.679-24.578 64.076-26.341 33.526-2.511 64.979 9.12 88.604 32.747 37.948 37.946 43.891 97.815 14.129 142.362l-9.868 14.823 38.235 18.921 51.142 50.508h43.717V43.502H39.894zm429.801 291.942H436.18l-49.861-49.24-31.912-15.792 5.311-7.976c31.669-47.401 25.346-111.111-15.033-151.488-24.774-24.775-59.143-37.475-94.259-34.845-24.912 1.878-49.137 11.836-68.217 28.04-26.715 22.695-42.19 55.771-42.458 90.747-.268 34.997 14.692 68.31 41.041 91.397 18.336 16.082 41.716 26.349 65.83 28.911 28.152 3.024 56.46-3.862 79.725-19.39l7.98-5.331 15.798 31.926 13.206 13.04H47.126V50.734h422.569v284.71z"/><path class="st4" d="M473.095 14.792H38.906c-12.824 0-23.238 10.413-23.238 23.238v343.914c0 12.824 10.414 23.238 23.238 23.238h434.189c12.824 0 23.238-10.414 23.238-23.238V38.03c0-12.825-10.414-23.238-23.238-23.238zm12.269 336.32h-38.472l12.125 11.981c8.678 8.557 8.726 22.538.096 31.168a21.88 21.88 0 0 1-15.524 6.436 21.969 21.969 0 0 1-15.452-6.339l-43.8-43.245H31.457V35.065h453.907v316.047z"/><path class="st2" d="M310.505 413.609H206.32l-28.243 67.751h160.669l-28.241-67.751zm-99.364 7.232h94.542l22.215 53.288H188.927l22.214-53.288z"/><path class="st4" d="M300.06 429.278h-83.296l-15.179 36.414h113.656z"/><path class="st2" d="M112.817 474.129v38.747h291.191v-38.747H112.817zm283.959 31.516H120.049v-24.284h276.727v24.284z"/><path class="st4" d="M128.486 489.798h259.853v7.41H128.486z"/><path class="st2" d="M16.881 505.645h483.062v7.232H16.881z"/><circle cx="258.791" cy="378.627" r="19.019" style="fill:#fff"/><path class="st2" d="M258.791 355.992c-12.481 0-22.634 10.154-22.634 22.635 0 12.481 10.153 22.635 22.634 22.635s22.634-10.154 22.634-22.635c0-12.48-10.153-22.635-22.634-22.635zm0 38.038c-8.493 0-15.403-6.91-15.403-15.403s6.909-15.403 15.403-15.403 15.403 6.91 15.403 15.403c-.001 8.494-6.91 15.403-15.403 15.403zM174.363 232.168l-6.655 2.827a98.732 98.732 0 0 0 3.195 6.792l6.422-3.323a91.523 91.523 0 0 1-2.962-6.296zm-4.464-13.175-7.003 1.801a99.622 99.622 0 0 0 2.139 7.192l6.848-2.321a92.913 92.913 0 0 1-1.984-6.672zm10.856 25.528-6.153 3.797a99.069 99.069 0 0 0 4.181 6.235l5.85-4.251a92.49 92.49 0 0 1-3.878-5.781zm-13.777-48.699c0-1.477.035-2.953.106-4.428l-7.225-.344a101.318 101.318 0 0 0-.075 7.498l7.229-.194c-.022-.845-.034-1.691-.035-2.532zm.482 9.479-7.194.732c.252 2.474.601 4.974 1.039 7.429l7.119-1.27a92.95 92.95 0 0 1-.964-6.891zm28.001-86.093 4.654 5.534a94.492 94.492 0 0 1 5.493-4.28l-4.228-5.866a101.402 101.402 0 0 0-5.919 4.612zm10.447 160.937a99.877 99.877 0 0 0 6.462 3.803l3.43-6.367a92.758 92.758 0 0 1-5.993-3.526l-3.899 6.09zm-22.488-19.689a102.502 102.502 0 0 0 5.06 5.536l5.156-5.072a95.078 95.078 0 0 1-4.702-5.144l-5.514 4.68zm-14.644-82.867-7.093-1.414a101.205 101.205 0 0 0-1.19 7.404l7.177.88a93.885 93.885 0 0 1 1.106-6.87zm25.156 93.55a101.346 101.346 0 0 0 5.819 4.728l4.348-5.779a94.2 94.2 0 0 1-5.403-4.389l-4.764 5.44zm158.084-85.501 7.189-.792a101.235 101.235 0 0 0-1.099-7.419l-7.109 1.326a93.31 93.31 0 0 1 1.019 6.885zm-7.121-26.81 6.634-2.885a100.61 100.61 0 0 0-3.251-6.764l-6.394 3.376a92.481 92.481 0 0 1 3.011 6.273zm-6.492-12.301 6.125-3.848a98.852 98.852 0 0 0-4.233-6.201l-5.814 4.301a91.745 91.745 0 0 1 3.922 5.748zm-8.27-11.191 5.48-4.72a101.002 101.002 0 0 0-5.104-5.494l-5.113 5.113a94.205 94.205 0 0 1 4.737 5.101zm-122.501-24.895 3.774 6.169a92.293 92.293 0 0 1 6.07-3.403l-3.296-6.437a100.224 100.224 0 0 0-6.548 3.671zm141.832 61.523 6.991-1.854a101.036 101.036 0 0 0-2.196-7.175l-6.832 2.374a90.916 90.916 0 0 1 2.037 6.655zm-176.955-7.765-6.799-2.462a100.109 100.109 0 0 0-2.285 7.145l6.966 1.941a92.791 92.791 0 0 1 2.118-6.624zm153.721-43.12a101.578 101.578 0 0 0-5.784-4.776l-4.393 5.745a93.576 93.576 0 0 1 5.365 4.431l4.812-5.4zm-148.023 30.444-6.354-3.456a99.612 99.612 0 0 0-3.331 6.719l6.596 2.965a92.404 92.404 0 0 1 3.089-6.228zm7.539-11.672-5.763-4.369a99.91 99.91 0 0 0-4.301 6.139l6.073 3.924a93.005 93.005 0 0 1 3.991-5.694zm8.412-9.643.799-.789-5.059-5.168-.853.845a101.82 101.82 0 0 0-4.311 4.584l5.421 4.787a96.236 96.236 0 0 1 4.003-4.259zm153.141 96.574 6.822 2.402a99.441 99.441 0 0 0 2.225-7.162l-6.982-1.883a92.056 92.056 0 0 1-2.065 6.643zM304.415 114.46a91.781 91.781 0 0 1 5.963 3.575l3.95-6.058a99.905 99.905 0 0 0-6.434-3.856l-3.479 6.339zm10.136 156.32 4.275 5.832a99.585 99.585 0 0 0 5.883-4.66l-4.699-5.496a93.398 93.398 0 0 1-5.459 4.324zm10.836-9.296-.228.228 5.047 5.18.304-.301a101.183 101.183 0 0 0 4.845-5.195l-5.461-4.742a94.455 94.455 0 0 1-4.507 4.83zm-22.644 16.649 3.348 6.41a99.866 99.866 0 0 0 6.518-3.724l-3.823-6.138a92.347 92.347 0 0 1-6.043 3.452zm-10.981-169.427a93.39 93.39 0 0 1 6.436 2.638l2.994-6.583a100.304 100.304 0 0 0-6.94-2.844l-2.49 6.789zm42.497 142.53 5.801 4.321a101.225 101.225 0 0 0 4.249-6.173l-6.106-3.875a93.174 93.174 0 0 1-3.944 5.727zm16.665-37.879 7.104 1.362a99.523 99.523 0 0 0 1.13-7.417l-7.185-.82a92.003 92.003 0 0 1-1.049 6.875zm8.823-21.03-7.227.254c.038 1.096.056 2.193.059 3.28 0 1.228-.026 2.455-.073 3.682l7.227.28a100.757 100.757 0 0 0 .014-7.496zm-18.042 47.174 6.379 3.405a98.455 98.455 0 0 0 3.277-6.748l-6.62-2.908a91.351 91.351 0 0 1-3.036 6.251zm-51.739 44.121 2.344 6.841a99.54 99.54 0 0 0 7.001-2.7l-2.853-6.644a93.995 93.995 0 0 1-6.492 2.503zm-13.461 3.509 1.295 7.115c2.448-.446 4.913-.99 7.326-1.62l-1.822-6.997a93.208 93.208 0 0 1-6.799 1.502zm-43.289 5.167c2.402.659 4.859 1.235 7.3 1.713l1.389-7.097a93.75 93.75 0 0 1-6.775-1.589l-1.914 6.973zm1.994-193.442 1.768 7.013a93.489 93.489 0 0 1 6.808-1.448l-1.238-7.125c-2.455.426-4.924.951-7.338 1.56zm-14.227 4.749 2.801 6.668a93.03 93.03 0 0 1 6.513-2.451l-2.288-6.86a100.4 100.4 0 0 0-7.026 2.643zm26.939 191.567c2.472.294 4.988.498 7.474.606l.315-7.225a93.755 93.755 0 0 1-6.938-.563l-.851 7.182zm16.667-192.006c2.304.119 4.635.327 6.933.618l.909-7.174a100.77 100.77 0 0 0-7.469-.666l-.373 7.222zm13.797 1.751a93.789 93.789 0 0 1 6.763 1.644l1.968-6.959a99.731 99.731 0 0 0-7.286-1.771l-1.445 7.086zm-59.285 182.336a100.769 100.769 0 0 0 6.961 2.788l2.434-6.81a93.708 93.708 0 0 1-6.457-2.585l-2.938 6.607zm43.569 1.344.226 7.228c2.49-.077 5.01-.25 7.484-.511l-.763-7.192a93.512 93.512 0 0 1-6.947.475zm-12.693-192.31.706 7.198a94.53 94.53 0 0 1 6.949-.42l-.169-7.229c-2.493.057-5.012.209-7.486.451z"/><path d="M319.429 136.201c-15.937-15.942-37.13-24.722-59.67-24.722-22.527 0-43.707 8.771-59.635 24.696-32.892 32.886-32.891 86.408.002 119.308 15.938 15.943 37.131 24.722 59.671 24.722 22.528 0 43.706-8.771 59.635-24.696 15.935-15.93 24.708-37.113 24.708-59.648-.001-22.535-8.777-43.722-24.711-59.66z" style="fill:#ffd452"/><path class="st2" d="m461.555 360.517-75.247-74.305-31.907-15.8 5.33-7.985c31.646-47.4 25.318-111.106-15.047-151.478-24.769-24.777-59.127-37.476-94.256-34.836-24.913 1.871-49.141 11.83-68.22 28.041-26.71 22.692-42.182 55.765-42.449 90.738-.267 34.992 14.689 68.3 41.033 91.385 18.349 16.078 41.727 26.354 65.83 28.933 28.143 3.012 56.462-3.876 79.723-19.399l7.985-5.329 15.805 31.932 75.466 74.519c4.967 4.905 11.471 7.355 17.978 7.355 6.556 0 13.117-2.492 18.093-7.469 4.854-4.855 7.516-11.31 7.495-18.176-.025-6.866-2.728-13.303-7.612-18.126zm-4.998 31.188c-7.114 7.11-18.719 7.149-25.878.081l-74.605-73.667-18.917-38.222-14.831 9.898c-21.85 14.583-48.446 21.06-74.939 18.223-22.633-2.422-44.593-12.076-61.831-27.182-24.762-21.698-38.821-53.004-38.569-85.891.251-32.868 14.794-63.952 39.9-85.282 17.924-15.228 40.68-24.583 64.08-26.34 33.517-2.517 64.981 9.109 88.602 32.738 37.933 37.942 43.885 97.808 14.148 142.35l-9.901 14.828 38.239 18.936 74.419 73.487a18.243 18.243 0 0 1 5.459 13.003 18.239 18.239 0 0 1-5.376 13.04z"/><path d="m450.547 371.667-73.454-72.532-27.82-13.776 13.736 27.751 73.599 72.674a9.857 9.857 0 0 0 6.968 2.861 9.85 9.85 0 0 0 7.013-2.904 9.859 9.859 0 0 0 2.907-7.047 9.85 9.85 0 0 0-2.949-7.027z" style="fill:#71cce0"/><path transform="rotate(-44.992 342.431 278.515)" class="st2" d="M332.975 274.892h18.9v7.232h-18.9z"/><path class="st2" d="M235.337 188.827v22.378c0 3.615-2.941 6.557-6.556 6.557s-6.556-2.941-6.556-6.557v-2.425h-7.231v2.425c0 7.603 6.185 13.788 13.788 13.788s13.788-6.185 13.788-13.788v-22.378h-7.233zM262.593 188.834c-8.018 0-14.541 6.523-14.541 14.539v7.081c0 8.017 6.523 14.539 14.541 14.539 8.016 0 14.539-6.523 14.539-14.539v-7.081c-.001-8.016-6.524-14.539-14.539-14.539zm7.306 21.621c0 4.03-3.277 7.308-7.307 7.308s-7.309-3.278-7.309-7.308v-7.081c0-4.03 3.279-7.308 7.309-7.308s7.307 3.278 7.307 7.308v7.081zM297.04 188.834h-14.737v21.696h14.737c5.981 0 10.847-4.866 10.847-10.848 0-5.981-4.866-10.848-10.847-10.848zm0 14.464h-7.505v-7.232h7.505a3.62 3.62 0 0 1 3.616 3.616 3.621 3.621 0 0 1-3.616 3.616z"/><path class="st2" d="M297.04 203.298h-14.737v21.696h14.737c5.981 0 10.847-4.866 10.847-10.848 0-5.981-4.866-10.848-10.847-10.848zm0 14.464h-7.505v-7.232h7.505c1.994 0 3.616 1.622 3.616 3.616s-1.623 3.616-3.616 3.616zM203.014 236.422h116.853v7.232H203.014zM225.324 256.315h72.233v7.232h-72.233zM262.479 116.83c-7.921.001-14.367 6.446-14.367 14.368s6.445 14.367 14.367 14.367 14.367-6.445 14.367-14.368c0-7.922-6.445-14.367-14.367-14.367zm0 21.503c-3.934 0-7.135-3.201-7.135-7.135 0-3.935 3.201-7.136 7.135-7.136 3.934 0 7.135 3.201 7.135 7.135.001 3.934-3.201 7.136-7.135 7.136z"/><path class="st2" d="M269.678 138.333h-14.171c-9.426 0-17.093 7.667-17.093 17.091v18.41h48.354v-18.41c.001-9.424-7.666-17.091-17.09-17.091zm9.859 28.269h-33.891v-11.178c0-5.437 4.423-9.859 9.861-9.859h14.171c5.436 0 9.859 4.423 9.859 9.859v11.178z"/></svg>